<svg xmlns="http://www.w3.org/2000/svg" viewBox="0 0 212 40"><g fill="#142B6F" fill-rule="evenodd"><path d="M13.15 5.51c.583.039 1.514.354 2.213.984.737.748.893 1.85.66 2.835-.233.905-.505 1.378-1.398 1.968-.931.63-2.018.59-2.018.59v3.898l1.863 1.536-1.863 1.535v5.316s1.863-1.103 3.028-3.505c0 0 .038-.118.155-.393.116.67.039 1.968-.699 3.661-.543 1.26-1.553 2.52-2.795 3.19-2.212 1.26-3.882 1.377-5.667.984-2.096-.433-3.96-1.615-5.28-3.701C.497 23.03.07 21.416.07 19.683v-.275c.077-3.583 2.717-6.694 5.745-7.835.388-.158.504-.237 1.048-.276-.233.158-.505.394-.854.63-.97.67-1.825 1.93-2.174 2.953l5.9-2.677v8.346l-4.736 2.402c.544.748 2.174 1.93 3.61 2.087 2.407.275 3.805-.788 3.805-.788v-5.394l-1.864-1.535 1.864-1.536v-3.897c-1.01-.118-2.252-.473-2.95-.63-1.049-.276-4.581-1.26-5.124-1.339-.544-.079-1.243-.04-1.63.315a1.709 1.709 0 00-.505 1.654c.116.354.31.55.504.748 0 0-.194 0-.582-.236-.66-.394-1.165-1.182-1.242-2.166-.078-1.3.427-2.44 1.475-3.189.893-.59 1.94-.984 3.105-.787 1.747.236 4.076 1.26 6.134 1.732.815.197 1.436.276 1.98-.079.271-.197.737-.709.349-1.338-.427-.788-1.281-.749-2.019-.906.388-.079.582-.118.776-.118.117 0 .233 0 .427.04l.04-.08zM6.163 22.124v-8.07l-2.407 1.062s-.62 1.378-.504 3.386c.077 1.575.931 3.465 1.63 4.252l1.281-.63zM36.014 13.66s-1.786 1.102-3.028 1.85c-1.203.748-2.834 1.535-2.834 1.535v7.678l-1.086.866.155.157 1.048-.866 3.338 3.032 5.784-4.646-.155-.157-3.183 2.52-2.64-2.481v-.945l5.28-3.937-2.679-4.685v.078zm.078 6.338l-2.679 2.008v-6.614l2.679 4.646v-.04zM20.875 30.865c.776.197 2.096.275 3.688-.512 1.785-.906 2.678-2.835 2.678-4.803l.078-2.796v-6.102l1.125-.867-.116-.157-1.126.866-2.6-2.913-3.339 2.913V6.651L17.11 9.92c.194.118.776.236.776 1.063v13.78l-1.747 1.339.117.197.854-.63 2.368 2.244 3.726-2.992-.116-.158-.893.709-.932-.945v-7.678l1.087-.944 1.63 2.047v6.614c0 1.772 0 3.937-.931 5-.893 1.063-1.281 1.142-2.213 1.418l.039-.118zM46.689 30.156c-1.475-.158-2.096-1.102-2.096-1.811 0-.473.427-1.378 1.32-1.496.892-.118 1.824.315 2.6 1.22l3.416-3.858-.155-.158-.932 1.063a6.022 6.022 0 00-3.61-1.968V11.415l8.929 16.497s.077.197.465.197c.31 0 .233-.276.233-.276V11.258c.738-.04 1.825-.433 2.368-.985 1.708-1.771 1.01-3.74.815-3.937-.116.866-.737 1.693-1.824 1.733-1.398 0-2.29-1.063-2.29-1.063l-3.416 3.976.155.158.97-1.142c1.204 1.102 2.097 1.22 2.99 1.3v9.606l-6.6-12.205c-.582-1.024-1.514-1.89-2.95-1.89-1.63 0-2.834 1.457-2.95 2.716-.155 1.418 0 1.772 0 1.772s.233-1.575 1.203-1.575c.854 0 1.32.827 1.67 1.457v3.543c-.893.08-3.261.158-3.378 2.638 0 .906.544 1.89 1.048 2.205.621.433 1.126.433 1.126.433s-.776-.394-.543-1.22c.194-.709 1.708-.827 1.746-.552v5c-.698 0-2.988.08-4.037 2.048-.62 1.22-.582 2.56.078 3.504.544.787 1.67 1.772 3.571 1.417l.078-.039zM65.554 13.66s-1.824 1.102-3.027 1.85c-1.204.748-2.834 1.535-2.834 1.535v7.678l-1.087.866.155.157 1.048-.866 3.339 3.032 5.784-4.646-.156-.157-3.183 2.52-2.64-2.481v-.945l5.28-3.937-2.679-4.685v.078zm.078 6.338l-2.678 2.008v-6.614l2.678 4.646v-.04zM73.629 28.03l-2.834-2.402-1.242.906-.117-.197 1.281-.945v-6.654c.078-2.756-2.484-2.047-2.329-4.96.078-1.3 1.281-2.245 1.902-2.56.66-.354 1.359-.354 1.359-.354s-1.165.748-.893 1.772c.427 1.614 3.183 1.771 3.222 3.937v7.56l2.018 1.653.544-.433v-8.19l-1.087-1.102 2.795-2.52 2.562 2.323-.97 1.063v7.245l2.406 2.007.427-.275v-8.74l-1.087-1.024 2.834-2.599 2.64 2.205 1.048-.945.155.158-2.368 2.126v7.126l-6.056 3.78-3.105-2.48-3.067 2.48-.038.039zM197.574 13.66s-1.824 1.102-3.027 1.85c-1.204.748-2.834 1.535-2.834 1.535v7.678l-1.087.866.155.157 1.048-.866 3.339 3.032 5.783-4.646-.155-.157-3.183 2.52-2.64-2.481v-.945l5.28-3.937-2.679-4.685v.078zm.078 6.338l-2.678 2.008v-6.614l2.678 4.646v-.04zM170.479 16.887l.156.158 1.087-.945 1.591 1.85v6.38l-.776.707 2.523 2.874 2.562-2.559-1.048-1.142v-7.677l.66-.512 1.747 2.126v6.34l-.66.668 2.368 2.678 2.523-2.559-.932-.985v-7.717l.66-.55 1.863 2.047v6.338l-.621.591 2.64 2.913 3.493-3.307-.155-.157-.854.787-1.281-1.457v-7.205l1.242-.984-.116-.157-1.281.984-2.368-2.717-3.416 2.717-2.407-2.638-3.299 2.638-2.407-2.599z"/><path d="M163.337 16.691l.155.157.893-.787 1.436 1.693v7.283l-1.009.906.155.157 1.048-.905 2.329 2.716 3.339-3.03-.117-.198-1.009.905-1.359-1.614v-7.126l1.165-1.024-.155-.157-1.126.945-2.407-2.874zM164.307 10.667l2.524-2.323 2.057 2.283-2.562 2.323z"/><path d="M160.93 5.51c.582.039 1.514.354 2.213.984.737.748.893 1.85.66 2.835-.233.905-.505 1.378-1.398 1.968-.893.63-2.018.59-2.018.59v3.898l1.863 1.536-1.863 1.535v5.316s1.863-1.103 3.028-3.505c0 0 .038-.118.155-.393.116.67.039 1.968-.699 3.661-.543 1.26-1.553 2.52-2.795 3.19-2.212 1.26-3.882 1.377-5.667.984-2.096-.433-3.96-1.615-5.28-3.701-.892-1.457-1.32-3.15-1.28-4.961.077-3.583 2.717-6.693 5.745-7.835.388-.157.504-.236 1.048-.276-.233.158-.505.394-.854.63-.97.67-1.825 1.93-2.174 2.953l5.9-2.677v8.347l-4.736 2.401c.544.748 2.174 1.93 3.61 2.087 2.407.276 3.805-.787 3.805-.787v-5.394l-1.864-1.536 1.864-1.535v-3.898c-1.01-.118-2.252-.472-2.95-.63-1.049-.275-4.581-1.26-5.125-1.339-.543-.078-1.242-.039-1.63.315a1.708 1.708 0 00-.504 1.654c.116.354.31.551.504.748 0 0-.194 0-.582-.236-.66-.394-1.165-1.181-1.242-2.166-.078-1.299.427-2.44 1.475-3.189.893-.59 1.94-.984 3.105-.787 1.747.236 4.076 1.26 6.133 1.732.816.197 1.437.276 1.98-.078.272-.197.738-.71.35-1.34-.427-.787-1.281-.747-2.019-.905.388-.078.582-.118.776-.118.117 0 .233 0 .427.04l.04-.118zm-6.987 16.614v-8.07l-2.407 1.062s-.62 1.378-.504 3.386c.077 1.575.931 3.465 1.63 4.252l1.28-.63zM203.98 28.975c-.389.118-2.058-.276-2.446-2.047-.388-1.693.776-2.875 2.523-4.686l-2.096-1.929v-3.661s1.514-.788 2.717-1.536 2.407-1.575 2.407-1.575.893 1.142 1.902 1.063c1.591-.157 1.514-1.417 1.475-1.693.272.473 1.01 1.93-1.786 5.197l2.252 1.85v4.765s-2.64 1.378-5.124 3.228c0 0-1.398-1.772-2.601-.905-.815.55-.427 1.535.699 1.968l.077-.04zm-1.942-3.701s1.204-2.008 3.261-1.575c1.98.433 2.64 2.52 2.64 2.52v-4.843l-1.359-1.22c-1.514 1.535-4.192 3.74-4.503 5.118h-.039zm3.028-10.118v3.819l1.242 1.102s2.718-2.205 3.727-4.252c0 0-1.242 1.693-2.873 1.181-1.397-.433-2.096-1.85-2.096-1.85zM119.162 16.848l1.01-.944.155.157-1.01.945v7.599s-1.902 1.023-3.183 1.771c-1.32.748-2.717 1.654-2.717 1.654l-3.455-2.953-.931.788-.156-.158.97-.866v-8.15s1.631-.748 2.99-1.535c1.242-.71 2.6-1.536 2.6-1.536l3.688 3.228h.04zm-6.017 6.694l2.912 2.677v-8.19l-2.912-2.755v8.268zM125.955 16.061l2.213-2.283s.31.275.582.393c.155.079.815.433 1.436.079.35-.197.389-.236.738-.59.078 1.771-.776 3.031-1.825 3.543-.426.197-1.669.63-2.989-.984v8.189l1.398 1.26 1.165-.985.116.158-3.649 3.07-2.756-2.558-1.01.945-.155-.158 1.514-1.378v-7.047l-1.164-1.575-1.01.905-.155-.157 3.533-3.19 1.98 2.402.038-.039zM135.194 19.486l4.076-5.984s.543.63 1.475.905c1.28.315 2.368-.905 2.368-.905-.194 1.614-1.01 3.425-2.679 3.7-1.436.237-2.795-.905-2.795-.905l-.271.433 5.628 8.623 1.126-.985.155.158-3.882 3.425-5.201-8.425v-.04z"/><path d="M131.856 11.494c0-1.3-.505-2.087-1.204-2.047l4.425-3.15v17.835l1.165 1.26.893-.787.155.157-3.571 3.15-2.407-2.284-.97.866-.156-.157 1.67-1.496V11.494zM94.862 11.179c0-1.22-.466-1.89-1.281-1.89-1.126-.04-1.397 1.575-1.397 1.575s-.195-1.26.815-2.362c.582-.63 1.63-1.496 3.338-1.103 1.747.433 2.213 1.772 2.213 2.993v16.614s.66.079 1.087.197l1.009.236v-20h.233v2.716l3.571-2.913 2.6 2.362 1.204-1.063.155.158-1.28 1.102v15.434c-.078 1.023-.233 2.047-1.165 2.637-2.096 1.26-4.62-.196-6.87-.511-1.67-.237-4.27-.591-4.93.984-.234.512-.195 1.3.543 1.811 1.514 1.024 8.268-1.732 10.597-.63 2.096.984 2.096 2.56 1.786 3.662-.544 2.047-3.067 2.401-3.067 2.401s1.242-.748.893-1.929c-.194-.63-.582-.787-1.902-.63-2.912.315-6.366 1.772-8.695.788-1.204-.512-2.058-2.048-1.98-3.505.077-2.165 2.523-2.992 2.523-2.992v-7.953c-.078-.315-1.359-.236-1.67.355-.426.866.544 1.299.544 1.299s-.815.118-1.475-.67c-.31-.393-1.009-1.732-.116-2.992.737-1.023 1.63-1.22 2.717-1.338v-4.843zm6.056 16.3s1.048.275 1.785-.355c.854-.708.738-1.693.738-1.693v-6.18s-.466-.63-1.242-.63c-.777 0-1.281.668-1.281.668v8.19zm2.523-16.221l-1.708-1.536-.815.67v5.748s.504.67 1.28.67c.777 0 1.243-.63 1.243-.63v-4.923zm0 5.236s-.505.551-1.242.551c-.777 0-1.281-.55-1.281-.55v2.44s.504-.551 1.28-.551c.777 0 1.243.551 1.243.551V16.494z"/></g></svg>