<svg xmlns="http://www.w3.org/2000/svg" focusable="false" aria-hidden="true" width="48.31" height="42.165" viewBox="0 0 48.31 42.165" class="icon">
	<g transform="translate(4 -1)">
		<path d="M569.61 1381h.005z" transform="translate(-557.809 -1374.742)"></path>
		<path d="M583.628 1380.862h-.007l.025.018z" transform="translate(-546.901 -1374.848)"></path>
		<path d="M572.6 1379.039l-.009.005.029-.014z" transform="translate(-555.484 -1376.272)"></path>
		<path d="M584.483 1399.2a10.831 10.831 0 0 0 1.727-.872c.292-.183.578-.377.864-.569l.654-.434c.222-.146.445-.285.674-.414.167-.093.336-.184.505-.273l.3-.161a7.169 7.169 0 0 0 1.229-.868.928.928 0 0 0 .357-.855 1.015 1.015 0 0 0-.107-.327l-.08-.135a2.4 2.4 0 0 0-.253-.309 4.437 4.437 0 0 0-.4-.386c-.155-.144-.317-.29-.48-.428a9.762 9.762 0 0 0-1.375-1.007c-.322-.19-.64-.39-.946-.6s-.589-.448-.871-.683l-.356-.292a15.7 15.7 0 0 0-1.625-1.127c-.532-.335-1.057-.681-1.581-1.026-.678-.445-1.355-.891-2.045-1.312-.185-.114-.375-.219-.567-.324-.21-.117-.422-.233-.628-.363-.512-.318-1.055-.59-1.6-.866-.711-.357-1.43-.7-2.15-1.041l-1.01-.482-.719-.346-.726-.349a1.52 1.52 0 0 0-.626-.2h-.011a.5.5 0 0 0-.42.269 1.308 1.308 0 0 0-.13.6c-.005.317.02.634.043.948l.023.3.027.468c.018.3.036.61.059.912l.016.24c.028.4.057.8.066 1.2.018.68.013 1.353.005 2.031l-.009.436c-.023.594-.046 1.189-.052 1.785a10.031 10.031 0 0 0 .061 1.057l.046.537.044.539c.036.4.068.747.089 1.1.02.247.027.5.032.751l.007.3c.023.636.028 1.271.005 1.912-.021.67-.045 1.346-.034 2.021l.009.519.009.626c0 .224.018.447.032.67l.023.4c.018.258.034.514.039.772a2.056 2.056 0 0 0 .029.323 1.3 1.3 0 0 0 .085.29.968.968 0 0 0 .185.283.6.6 0 0 0 .272.137 1.13 1.13 0 0 0 .173.014.805.805 0 0 0 .2-.025 2.746 2.746 0 0 0 .56-.237c.114-.057.224-.123.334-.19l.242-.148.3-.194.418-.281a13.4 13.4 0 0 1 1.5-.927c.167-.078.34-.156.518-.222.21-.078.427-.149.637-.217l.384-.121c.164-.05.325-.1.485-.155.212-.071.414-.162.621-.25l.151-.066c.272-.119.546-.235.809-.375.213-.117.414-.246.615-.374a15.811 15.811 0 0 1 1.578-.882c.585-.245 1.17-.486 1.76-.727z" transform="translate(-561.355 -1371.693)"></path>
		<path d="M585.769 1394.574l.005-.009-.012.02z" transform="translate(-545.234 -1364.178)"></path>
		<path d="M579.762 1400.7h-.03l-.148.03z" transform="translate(-550.044 -1359.406)"></path>
		<path d="M587.9 1383.481l-.018-.037.007.016z" transform="translate(-543.586 -1372.836)"></path>
		<path d="M608.769 1397.253a13.61 13.61 0 0 0-.044-1.519c-.055-.521-.153-1.049-.258-1.57l.007.032c-.084-.43-.162-.854-.217-1.283-.062-.475-.123-.944-.217-1.412a6.913 6.913 0 0 0-.415-1.177q-.213-.509-.453-1.014l.014.032c-.164-.35-.358-.678-.53-1.017l-.018-.039.012.029-.023-.05c-.014-.027-.027-.051-.039-.08l.032.064c-.1-.222-.187-.448-.283-.67-.119-.279-.243-.553-.377-.827a3.714 3.714 0 0 0-.356-.647 4.11 4.11 0 0 0-.6-.611c-.185-.169-.352-.347-.53-.52a5.058 5.058 0 0 0-.671-.553c-.071-.053-.142-.107-.211-.166l-.094-.119a8.583 8.583 0 0 0-.893-.937c-.313-.3-.619-.613-.966-.885a7.971 7.971 0 0 0-1.446-.866q-.694-.352-1.4-.7c-.592-.29-1.2-.548-1.809-.81-.278-.125-.559-.251-.841-.368s-.576-.217-.861-.331c-.6-.228-1.2-.44-1.8-.658-.228-.078-.457-.155-.681-.24.062.023.117.046.179.067-.3-.1-.6-.206-.921-.285-.251-.068-.514-.117-.77-.167-.614-.128-1.216-.279-1.825-.407a7.786 7.786 0 0 0-1.49-.172h-.181c-.455-.027-.913-.034-1.37-.037h-.1c-.457-.037-.914-.066-1.369-.066h-.174a10.781 10.781 0 0 0-1.976.279c-.267.057-.534.114-.8.176-.626.1-1.249.215-1.871.343a8.157 8.157 0 0 0-.859.206c-.318.089-.624.207-.937.324s-.624.266-.937.4c-.34.145-.681.281-1.026.419-.642.266-1.295.5-1.926.8-.251.121-.5.249-.747.4a9.857 9.857 0 0 0-.825.557c-.6.43-1.167.893-1.725 1.371a19.261 19.261 0 0 0-1.394 1.369c-.509.536-1.01 1.076-1.473 1.658-.213.267-.425.53-.626.8-.235.334-.446.676-.653 1.021-.342.587-.648 1.2-.953 1.8-.247.484-.509.968-.731 1.467v.005a18.171 18.171 0 0 0-.793 1.864 10.109 10.109 0 0 0-.474 2 8.994 8.994 0 0 0-.071 1.037c-.069.5-.1 1.009-.141 1.513a17.883 17.883 0 0 0-.029 1.948c.012.358.029.708.052 1.067s.066.685.089 1.032c.05.684.128 1.36.217 2.041a18.318 18.318 0 0 0 .658 3.874c.107.3.212.6.336.9s.272.6.418.9a18.118 18.118 0 0 0 .987 1.7 14.979 14.979 0 0 0 1.284 1.68 16.575 16.575 0 0 0 1.418 1.357c.457.413.92.825 1.394 1.214a14.063 14.063 0 0 0 1.713 1.146c.491.308.976.612 1.48.909.455.267.927.51 1.407.734.185.1.372.189.562.276q.427.21.87.38c.279.105.558.2.832.306s.525.2.788.3a6.942 6.942 0 0 0 1 .268 9.574 9.574 0 0 0 1.618.116c.162.005.322.012.484.02.125.02.247.041.37.058.352.052.7.083 1.049.107a13.531 13.531 0 0 0 1.919-.05c.018 0 .038 0 .055-.005.523.005 1.046.009 1.569.027.452.018.9.041 1.35.041.508 0 1.01-.057 1.513-.107.927-.1 1.853-.217 2.769-.393a17.88 17.88 0 0 0 2.012-.466 5.93 5.93 0 0 0 .955-.386c.29-.149.569-.329.848-.507s.552-.357.841-.519.6-.329.893-.5c.247-.146.493-.287.726-.443a9.462 9.462 0 0 0 .8-.606c.546-.452 1.078-.927 1.613-1.391s1.021-.953 1.512-1.444a19.165 19.165 0 0 0 1.323-1.519c.407-.5.786-1.016 1.149-1.545.032-.045.066-.089.1-.135l-.025.042c.018-.029.037-.057.055-.083l.05-.073-.032.044c.05-.073.1-.144.149-.219.384-.547.767-1.092 1.1-1.666.352-.6.647-1.242.96-1.866a16.822 16.822 0 0 0 .848-1.981 16.253 16.253 0 0 0 .514-1.946 17.026 17.026 0 0 0 .29-2.156c.016-.319.026-.637.033-.959v-.373c.021-.323.035-.65.041-.979zm-19.919 20.014c-.167.036-.333.066-.5.1l.126-.025c-.759.139-1.524.217-2.283.363h.018l-.073.012c-.08.008-.157.025-.237.029-.542.028-1.09.035-1.634.019-.639-.055-1.27-.159-1.9-.269-.249-.055-.495-.114-.742-.169-.48-.1-.966-.188-1.446-.277-.416-.084-.825-.192-1.231-.315-.071-.036-.14-.069-.21-.106-.324-.167-.653-.328-.976-.5a18.376 18.376 0 0 1-1.859-1.078l.007.005c-.377-.262-.751-.53-1.129-.786s-.793-.518-1.185-.779a9.858 9.858 0 0 1-.779-.626c-.318-.279-.635-.56-.937-.861-.285-.285-.574-.569-.87-.847s-.612-.58-.893-.888a8.275 8.275 0 0 1-.614-.85c-.117-.183-.229-.368-.341-.557s-.2-.384-.3-.574v.009l-.35-.745a7.984 7.984 0 0 0-.379-.765c-.144-.245-.295-.488-.446-.718-.016-.023-.028-.048-.044-.072-.036-.073-.07-.147-.1-.221a9.144 9.144 0 0 1-.535-1.494c-.13-.478-.224-.966-.317-1.451l-.064-.334.034.167c-.061-.331-.1-.667-.151-1-.026-.243-.051-.49-.078-.734-.05-.409-.128-.8-.172-1.212a6.786 6.786 0 0 1-.034-1.124c.028-.32.057-.642.094-.959s.1-.634.146-.948.1-.608.157-.911a8.856 8.856 0 0 1 .283-1.116c.253-.6.557-1.182.856-1.761q.451-.9.9-1.78c.29-.559.575-1.117.882-1.663.151-.263.3-.53.468-.793s.358-.541.541-.809c-.016.029-.032.052-.05.078a21.551 21.551 0 0 1 1.73-2.163c.3-.32.6-.621.9-.928.315-.325.651-.633.987-.937l-.045.034.046-.037.027-.024-.023.023c.468-.382.939-.749 1.441-1.088.4-.268.8-.509 1.2-.769s.781-.531 1.177-.79a14.966 14.966 0 0 1 1.489-.834l-.028.011.037-.016.048-.025-.028.016c.3-.13.606-.246.909-.368l1.169-.271c.562-.129 1.111-.32 1.682-.443a8.581 8.581 0 0 1 .951-.1c.413-.02.82 0 1.233 0h.24c.221 0 .443-.005.663-.012h.272c.331.034.663.059 1 .093a7.443 7.443 0 0 1 1.217.2c.507.133 1 .316 1.5.451.464.118.926.2 1.4.274.123.02.245.057.368.08l.057.018c.349.142.681.313 1.024.458.528.21 1.074.372 1.608.548.267.1.534.206.791.332.363.169.715.363 1.068.548a21.7 21.7 0 0 1 1.988 1.147c.148.1.292.2.438.3l-.011-.009.018.012c.025.018.048.034.071.048-.02-.011-.036-.023-.053-.034.384.276.752.569 1.113.866a11.459 11.459 0 0 1 1.17 1.065c.238.3.459.616.694.914.256.341.525.668.8.992a7.178 7.178 0 0 1 .923 1.348c.249.561.457 1.142.68 1.718.121.328.245.653.35.993.073.244.123.5.174.747.071.388.133.776.206 1.161.083.463.183.922.272 1.384v-.009c.036.212.068.421.091.633.034.248.034.5.046.749.016.5-.023.994-.013 1.489.005.238.02.475.032.711v.118a27.776 27.776 0 0 1-1.306 6.79c-.066.177-.133.352-.2.526-.206.406-.418.811-.648 1.2l-.169.3c-.139.221-.277.443-.42.66l.041-.06-.046.068-.03.046.023-.035c-.119.173-.242.345-.368.516-.162.217-.334.425-.5.643-.336.441-.644.9-.983 1.339s-.679.841-1.021 1.261c-.123.147-.245.293-.372.437a11.346 11.346 0 0 1-1.536.969c-.569.3-1.154.567-1.7.907-.53.331-1.048.681-1.579 1-.578.347-1.175.665-1.785.957a12.528 12.528 0 0 1-1.238.468c-.413.133-.838.222-1.256.327-.166.045-.329.093-.491.141-.249.053-.5.11-.745.172-.2.039-.407.078-.612.116.071-.012.126-.023.189-.036zm14.725-30.386c.009.019.02.039.029.061a.8.8 0 0 1-.041-.086zm-36.186.308c-.027.037-.053.08-.08.119l-.025.036c.034-.057.073-.107.105-.155zm-.69 20.71l-.032-.072.041.089zm40.59-9.375c0 .025-.005.05-.007.075 0-.029 0-.055.007-.083z" transform="translate(-567.804 -1376.272)"></path>
	</g>
</svg>